<svg
    width="32"
    height="32"
    version="1.1"
    viewBox="0 0 32 32"
    xmlns="http://www.w3.org/2000/svg">
    <path
        fill="#1e90ff"
        d="m 16,3.6347656 c 3.716108,0 7.433074,1.4115901 10.253906,4.2324219 5.641664,5.6416635 5.641664,14.8641955 0,20.5058595 a 2.5,2.5 0 0 1 -3.537109,0 2.5,2.5 0 0 1 0,-3.535156 c 3.730919,-3.73092 3.730919,-9.704628 0,-13.435547 C 20.878354,9.5639001 18.495892,8.6320936 16.105469,8.6054688 L 10.316406,4.7890625 C 12.126923,4.0222686 14.062898,3.6347656 16,3.6347656 Z m -12.5273439,7.1875004 3.076172,6.228515 c -0.314987,2.769323 0.594342,5.647076 2.734375,7.78711 a 2.5,2.5 0 0 1 0,3.535156 2.5,2.5 0 0 1 -3.537109,0 C 1.0074981,23.634451 0.2510871,16.369615 3.4726561,10.822266 Z"/>
    <path
        fill="#ff0000"
        d="m 4.0064581,4.537314 14.3323619,10.338639 -0.0073,0.0065 a 4,4 0 0 1 0.666342,0.589336 4,4 0 0 1 -0.350804,5.645967 4,4 0 0 1 -5.645967,-0.350805 4,4 0 0 1 -0.509662,-0.727685 4,4 0 0 1 -0.04724,-0.08595 z"/>
</svg>
